<svg xmlns="http://www.w3.org/2000/svg" width="16" height="16" viewBox="0 0 16 16">
    <g fill="none" fill-rule="evenodd">
        <path d="M0 0h16v16H0z"/>
        <path fill="#1E8AE6" fill-rule="nonzero" d="M8 2.75v1.5H2.75v9.165h9V8h1.5v5.25c0 .825-.675 1.5-1.5 1.5h-9c-.825 0-1.5-.675-1.5-1.5v-9c0-.825.675-1.5 1.5-1.5H8zm2.25 7.5v1.5h-6v-1.5h6zm0-2.25v1.5h-6V8h6zm0-2.25v1.5h-6v-1.5h6zm3-5.25v2.25h2.25v1.5h-2.25v2.242s-1.492.008-1.5 0V4.25H9.5s.008-1.493 0-1.5h2.25V.5h1.5z"/>
    </g>
</svg>
