<svg xmlns="http://www.w3.org/2000/svg" width="16" height="16" viewBox="0 0 16 16">
    <g fill="none" fill-rule="evenodd">
        <path d="M0 0h16v16H0z"/>
        <path fill="#1E8AE6" fill-rule="nonzero" d="M14 2h-2.377L10.25.5h-4.5L4.378 2H2C1.175 2 .5 2.675.5 3.5v9c0 .825.675 1.5 1.5 1.5h12c.825 0 1.5-.675 1.5-1.5v-9c0-.825-.675-1.5-1.5-1.5zm0 10.5H2v-9h3.037L6.41 2h3.18l1.373 1.5H14v9zM8 4.25C5.93 4.25 4.25 5.93 4.25 8c0 2.07 1.68 3.75 3.75 3.75 2.07 0 3.75-1.68 3.75-3.75 0-2.07-1.68-3.75-3.75-3.75zm0 6A2.257 2.257 0 0 1 5.75 8 2.257 2.257 0 0 1 8 5.75 2.257 2.257 0 0 1 10.25 8 2.257 2.257 0 0 1 8 10.25z"/>
    </g>
</svg>
