<svg xmlns="http://www.w3.org/2000/svg" width="16" height="16" viewBox="0 0 16 16">
    <g fill="none" fill-rule="evenodd">
        <path d="M0 0h16v16H0z"/>
        <path fill="#FFF" fill-rule="nonzero" d="M16 5.455c0 .8-.655 1.454-1.455 1.454-.13 0-.254-.014-.37-.05l-2.59 2.581a1.459 1.459 0 0 1-1.404 1.833A1.459 1.459 0 0 1 8.779 9.44L6.924 7.585c-.117.037-.248.051-.379.051-.13 0-.261-.014-.378-.05l-3.309 3.316c.037.116.051.24.051.37 0 .8-.654 1.455-1.454 1.455-.8 0-1.455-.654-1.455-1.454 0-.8.655-1.455 1.455-1.455.13 0 .254.015.37.051L5.142 6.56a1.459 1.459 0 0 1 1.404-1.833A1.459 1.459 0 0 1 7.948 6.56l1.855 1.855c.116-.037.247-.051.378-.051.13 0 .262.014.378.05l2.582-2.589a1.236 1.236 0 0 1-.051-.37c0-.8.654-1.455 1.454-1.455.8 0 1.455.655 1.455 1.455z"/>
    </g>
</svg>
