<svg xmlns="http://www.w3.org/2000/svg" width="16" height="16" viewBox="0 0 16 16">
    <g fill="none" fill-rule="evenodd">
        <path d="M0 0h16v16H0z"/>
        <path fill="#1E8AE6" fill-rule="nonzero" d="M7.993 3.977c2.527 0 4.78 1.42 5.88 3.666a6.431 6.431 0 0 1-1.606 2.08l.94.94a7.868 7.868 0 0 0 2.12-3.02c-1.154-2.926-4-5-7.334-5a7.9 7.9 0 0 0-2.426.38l1.1 1.1a6.739 6.739 0 0 1 1.326-.146zm-.713.76l1.38 1.38c.38.166.687.473.853.853l1.38 1.38a3.12 3.12 0 0 0 .094-.713 2.989 2.989 0 0 0-2.994-2.994c-.246 0-.48.034-.713.094zm-5.947-2.18L3.12 4.343a7.825 7.825 0 0 0-2.46 3.3c1.153 2.927 4 5 7.333 5a7.82 7.82 0 0 0 2.88-.546l2.28 2.28.94-.94L2.273 1.61l-.94.947zm5 5l1.74 1.74a.335.335 0 0 1-.08.013c-.92 0-1.666-.747-1.666-1.667 0-.033.006-.053.006-.086zM4.067 5.29l1.166 1.167a3.005 3.005 0 0 0 3.94 3.947l.654.653c-.587.16-1.2.253-1.834.253a6.513 6.513 0 0 1-5.88-3.667A6.601 6.601 0 0 1 4.067 5.29z"/>
    </g>
</svg>
