<svg xmlns="http://www.w3.org/2000/svg" width="16" height="16" viewBox="0 0 16 16">
    <g fill="none" fill-rule="evenodd">
        <path d="M0 0h16v16H0z"/>
        <path fill="#323232" fill-rule="nonzero" d="M4.25 10.5H9.5V12H4.25v-1.5zm0-3h7.5V9h-7.5V7.5zm0-3h7.5V6h-7.5V4.5zm9-3h-3.135A2.258 2.258 0 0 0 8 0c-.975 0-1.8.63-2.115 1.5H2.75a1.506 1.506 0 0 0-1.38.922c-.075.173-.12.368-.12.578v10.5c0 .203.045.405.12.585a1.506 1.506 0 0 0 1.08.892c.097.015.195.023.3.023h10.5c.825 0 1.5-.675 1.5-1.5V3c0-.825-.675-1.5-1.5-1.5zM8 1.312c.307 0 .563.255.563.563A.567.567 0 0 1 8 2.438a.567.567 0 0 1-.563-.563c0-.308.255-.563.563-.563zM13.25 13.5H2.75V3h10.5v10.5z"/>
    </g>
</svg>
