<svg xmlns="http://www.w3.org/2000/svg" width="16" height="16" viewBox="0 0 16 16">
    <g fill="none" fill-rule="evenodd">
        <path d="M0 0h16v16H0z"/>
        <path fill="#1E8AE6" fill-rule="nonzero" d="M12.5 6h-.75V4.5C11.75 2.43 10.07.75 8 .75 5.93.75 4.25 2.43 4.25 4.5V6H3.5C2.675 6 2 6.675 2 7.5V13c0 .825.675 1.5 1.5 1.5h9c.825 0 1.5-.675 1.5-1.5V7.5c0-.825-.675-1.5-1.5-1.5zM5.75 4.5A2.247 2.247 0 0 1 8 2.25a2.247 2.247 0 0 1 2.25 2.25V6h-4.5V4.5zM12.5 13h-9V7.5h9V13z"/>
    </g>
</svg>
