<svg xmlns="http://www.w3.org/2000/svg" width="16" height="16" viewBox="0 0 16 16">
    <g fill="none" fill-rule="evenodd">
        <path d="M0 0h16v16H0z"/>
        <path fill="#FFF" fill-rule="nonzero" d="M10.925 2.75a.365.365 0 0 0-.308.172l-.052.113-3.885 8.738c-.12.217-.195.457-.195.72a1.504 1.504 0 1 0 2.978.315l.007-.023 1.83-9.66a.371.371 0 0 0-.375-.375zm-11.175 3l1.5 1.5a9.496 9.496 0 0 1 7.898-2.715l.892-2.01A11.641 11.641 0 0 0-.25 5.75zm15 1.5l1.5-1.5a11.526 11.526 0 0 0-4.193-2.678l-.397 2.115a9.462 9.462 0 0 1 3.09 2.063zm-3 3l1.5-1.5a7.41 7.41 0 0 0-1.995-1.418l-.413 2.19c.316.203.623.443.908.728zm-9-1.5l1.5 1.5a5.324 5.324 0 0 1 3.023-1.5l.96-2.16A7.41 7.41 0 0 0 2.75 8.75z"/>
    </g>
</svg>
