<svg xmlns="http://www.w3.org/2000/svg" width="16" height="16" viewBox="0 0 16 16">
    <g fill="none" fill-rule="evenodd">
        <path d="M0 0h16v16H0z"/>
        <path fill="#1E8AE6" fill-rule="nonzero" d="M11.75 1.25h-9a1.5 1.5 0 0 0-1.5 1.5v10.5a1.5 1.5 0 0 0 1.5 1.5h10.5c.825 0 1.5-.675 1.5-1.5v-9l-3-3zm1.5 12H2.75V2.75h8.377l2.123 2.122v8.378zM8 8a2.247 2.247 0 0 0-2.25 2.25A2.247 2.247 0 0 0 8 12.5a2.247 2.247 0 0 0 2.25-2.25A2.247 2.247 0 0 0 8 8zM3.5 3.5h6.75v3H3.5v-3z"/>
    </g>
</svg>
