<svg xmlns="http://www.w3.org/2000/svg" width="16" height="16" viewBox="0 0 16 16">
    <g fill="none" fill-rule="evenodd">
        <path d="M0 0h16v16H0z"/>
        <path fill="#BEBEBE" fill-rule="nonzero" d="M7.993 4.333c2.527 0 4.78 1.42 5.88 3.667a6.513 6.513 0 0 1-5.88 3.667A6.513 6.513 0 0 1 2.113 8a6.513 6.513 0 0 1 5.88-3.667zm0-1.333C4.66 3 1.813 5.073.66 8c1.153 2.927 4 5 7.333 5 3.334 0 6.18-2.073 7.334-5-1.154-2.927-4-5-7.334-5zm0 3.333a1.667 1.667 0 1 1 0 3.335 1.667 1.667 0 0 1 0-3.335zm0-1.333c-1.653 0-3 1.347-3 3s1.347 3 3 3c1.654 0 3-1.347 3-3s-1.346-3-3-3z"/>
    </g>
</svg>
